<svg width="30" height="45" viewBox="0 0 30 45" fill="none" xmlns="http://www.w3.org/2000/svg">
<path fill-rule="evenodd" clip-rule="evenodd" d="M27.1168 22.0177C28.3143 19.9545 29 17.5573 29 15C29 7.26801 22.732 1 15 1C7.26801 1 1 7.26801 1 15C1 22.5678 7.00467 28.7332 14.5095 28.9916C14.5063 28.9944 14.5032 28.9972 14.5 29C14.3562 29.6615 14.1876 30.4521 14.0018 31.3229C13.1113 35.4979 11.8274 41.5167 11 43.999C11.5907 43.2901 12.3254 42.4406 13.1572 41.4789C17.3531 36.6276 24.0181 28.9215 27.1168 22.0177Z" fill="#3C89FF"/>
<path d="M27.1168 22.0177L26.6844 21.7667C26.6757 21.7817 26.6678 21.7971 26.6607 21.8129L27.1168 22.0177ZM14.5095 28.9916L14.841 29.3659C14.9942 29.2302 15.0493 29.0149 14.98 28.8224C14.9108 28.6298 14.7312 28.4989 14.5267 28.4919L14.5095 28.9916ZM14.5 29L14.1685 28.6257C14.089 28.6961 14.034 28.79 14.0114 28.8938L14.5 29ZM14.0018 31.3229L13.5128 31.2186L13.5128 31.2186L14.0018 31.3229ZM11 43.999L10.5257 43.8409C10.4496 44.0689 10.5467 44.3188 10.7567 44.4358C10.9667 44.5528 11.2302 44.5037 11.3841 44.3191L11 43.999ZM13.1572 41.4789L13.5354 41.806L13.5354 41.806L13.1572 41.4789ZM28.5 15C28.5 17.4668 27.8388 19.7777 26.6844 21.7667L27.5493 22.2687C28.7898 20.1313 29.5 17.6478 29.5 15H28.5ZM15 1.5C22.4558 1.5 28.5 7.54416 28.5 15H29.5C29.5 6.99187 23.0081 0.5 15 0.5V1.5ZM1.5 15C1.5 7.54416 7.54416 1.5 15 1.5V0.5C6.99187 0.5 0.5 6.99187 0.5 15H1.5ZM14.5267 28.4919C7.29023 28.2427 1.5 22.2974 1.5 15H0.5C0.5 22.8382 6.71912 29.2236 14.4923 29.4913L14.5267 28.4919ZM14.8315 29.3743C14.8347 29.3715 14.8378 29.3687 14.841 29.3659L14.178 28.6172C14.1749 28.62 14.1717 28.6229 14.1685 28.6257L14.8315 29.3743ZM14.4908 31.4272C14.6766 30.5561 14.845 29.7666 14.9886 29.1062L14.0114 28.8938C13.8673 29.5565 13.6985 30.3481 13.5128 31.2186L14.4908 31.4272ZM11.4743 44.1571C12.3131 41.6408 13.6041 35.5842 14.4908 31.4272L13.5128 31.2186C12.6184 35.4115 11.3417 41.3926 10.5257 43.8409L11.4743 44.1571ZM12.779 41.1519C11.9483 42.1124 11.2102 42.9657 10.6159 43.6789L11.3841 44.3191C11.9712 43.6145 12.7026 42.7689 13.5354 41.806L12.779 41.1519ZM26.6607 21.8129C23.5981 28.6362 16.9892 36.284 12.779 41.1519L13.5354 41.806C17.717 36.9712 24.4381 29.2068 27.573 22.2224L26.6607 21.8129Z" fill="white"/>
<circle cx="15" cy="15" r="10" fill="white"/>
</svg>
