<svg width="1741" height="797" viewBox="0 0 1741 797" fill="none" xmlns="http://www.w3.org/2000/svg">
<path d="M1072.95 487.371C1073.73 486.593 1073.73 485.326 1072.96 484.542L1060.28 471.764C1059.5 470.979 1058.24 470.974 1057.45 471.752C1056.67 472.53 1056.66 473.797 1057.44 474.581L1068.71 485.939L1057.35 497.208C1056.57 497.986 1056.56 499.252 1057.34 500.036C1058.12 500.82 1059.38 500.826 1060.17 500.048L1072.95 487.371ZM703.785 486.484L1071.53 487.951L1071.54 483.951L703.801 482.484L703.785 486.484Z" fill="#FAB50C"/>
<path d="M1537.13 36.2857L1528.03 0L1518.82 36.2857L1499 44.4286L1518.82 53.1429L1528.03 88L1537.13 53.1429L1558 44.4286L1537.13 36.2857Z" fill="#FDE19E"/>
<path d="M110.215 88.737L94.164 24L77.9453 88.737L43 103.265L77.9453 118.812L94.164 181L110.215 118.812L147 103.265L110.215 88.737Z" fill="#FDE19E"/>
<path d="M1113.36 740.584L1103.49 701L1093.5 740.584L1072 749.468L1093.5 758.974L1103.49 797L1113.36 758.974L1136 749.468L1113.36 740.584Z" fill="#FDE19E"/>
<path d="M1695.73 552.169L1675.97 473L1656.01 552.169L1613 569.935L1656.01 588.948L1675.97 665L1695.73 588.948L1741 569.935L1695.73 552.169Z" fill="#FDE19E"/>
<path d="M872.727 167.169L852.971 88L833.01 167.169L790 184.935L833.01 203.948L852.971 280L872.727 203.948L918 184.935L872.727 167.169Z" fill="#FDE19E"/>
<path d="M54.2894 676.542L41.3248 625L28.2251 676.542L0 688.109L28.2251 700.487L41.3248 750L54.2894 700.487L84 688.109L54.2894 676.542Z" fill="#FDE19E"/>
</svg>
