<svg width="1217" height="381" viewBox="0 0 1217 381" fill="none" xmlns="http://www.w3.org/2000/svg">
<line x1="404.016" y1="4.69214" x2="406.68" y2="368.44" stroke="#3C89FF" stroke-width="3"/>
<line x1="912.996" y1="0.694089" x2="915.661" y2="364.441" stroke="#3C89FF" stroke-width="3"/>
<path d="M625.108 120.163L608.862 55.334L592.447 120.163L557.078 134.712L592.447 150.281L608.862 212.558L625.108 150.281L662.338 134.712L625.108 120.163Z" fill="#FAB50C"/>
<path d="M725.771 183.461L715.078 140.607L704.273 183.461L680.992 193.077L704.273 203.369L715.078 244.535L725.771 203.369L750.277 193.077L725.771 183.461Z" fill="#FAB50C"/>
<path d="M660.257 267.471L651.209 231.211L642.066 267.471L622.367 275.609L642.066 284.317L651.209 319.15L660.257 284.317L680.993 275.609L660.257 267.471Z" fill="#FAB50C"/>
<circle cx="156.021" cy="183.245" r="17.3213" fill="#FAB50C"/>
<path fill-rule="evenodd" clip-rule="evenodd" d="M142.142 208.645C142.142 208.618 142.143 208.59 142.143 208.562C142.143 204.883 139.16 201.9 135.481 201.9C132.243 201.9 129.544 204.21 128.943 207.272C124.778 220.227 135.995 255.541 143.568 273.636C143.749 274.703 144.183 275.685 144.807 276.515C146.022 278.133 147.957 279.18 150.137 279.18C153.816 279.18 156.799 276.197 156.799 272.518C156.799 271.348 156.498 270.249 155.968 269.293L156.132 269.187C144.964 252.168 142.154 221.793 142.142 208.645Z" fill="#FAB50C"/>
<path fill-rule="evenodd" clip-rule="evenodd" d="M108.624 168.624C108.584 168.531 108.545 168.438 108.508 168.344L108.055 167.256L108.165 167.136C108.092 166.743 108.055 166.338 108.055 165.924C108.055 162.244 111.037 159.262 114.717 159.262C114.932 159.262 115.145 159.272 115.355 159.292L115.383 159.262H143.364L143.353 159.294C146.361 159.588 148.782 161.882 149.27 164.828C145.001 165.57 141.313 168.004 138.922 171.414C138.847 171.362 138.772 171.309 138.699 171.253H122.711L132.038 190.573C128.041 189.241 120.18 189.108 118.048 191.24L108.624 168.624Z" fill="#FAB50C"/>
<path fill-rule="evenodd" clip-rule="evenodd" d="M103.814 64.6602C73.1684 85.7566 22.0039 130.881 62.5091 142.606L114.464 153.93H107.811L107.783 153.964C107.573 153.941 107.36 153.93 107.145 153.93C103.466 153.93 100.483 157.285 100.483 161.424C100.483 161.89 100.521 162.346 100.593 162.788L100.483 162.923L100.936 164.147C100.973 164.253 101.012 164.358 101.053 164.462L109.31 186.755C76.1076 179.14 16.6341 161.792 8.54578 144.605C-2.11349 121.954 7.87957 105.965 23.8685 95.9717C39.8574 85.9787 66.5062 73.3208 94.4867 66.6588L103.814 64.6602Z" fill="#FAB50C"/>
<path fill-rule="evenodd" clip-rule="evenodd" d="M67.7212 271.313L66.9351 277.575C66.8729 277.946 66.8257 278.32 66.7941 278.699L66.625 280.046L66.7463 279.837L66.7463 279.845C66.7463 284.525 69.1178 288.715 72.8557 291.525L99.7517 322.904C100.496 324.412 101.61 325.705 102.975 326.665L103.388 327.146L103.5 327.01C105.019 327.941 106.805 328.478 108.717 328.478C114.236 328.478 118.71 324.004 118.71 318.485C118.71 315.541 117.437 312.895 115.412 311.066L97.439 289.586C97.5104 289.51 97.581 289.432 97.6507 289.355L89.3973 280.512L92.582 266.499C92.5458 266.48 92.5094 266.462 92.473 266.444C94.5502 260.395 97.1117 254.369 99.757 251.077C100.287 251.157 100.832 251.199 101.389 251.199C106.54 251.199 110.716 247.619 110.716 243.204C111.513 238.822 114.632 229.866 121.036 225.759L121.375 225.217L126.991 219.601C126.439 214.302 126.652 209.768 127.925 206.512C128.746 203.121 132.364 200.567 136.702 200.567C138.355 200.567 139.902 200.938 141.231 201.583C140.654 200.275 139.92 199.051 139.053 197.936L138.696 196.57L137.435 196.131C134.316 193.104 130.062 191.24 125.372 191.24C124.782 191.24 124.199 191.27 123.624 191.327L123.374 191.24C123.146 191.306 122.916 191.375 122.682 191.448C119.972 191.87 117.471 192.921 115.331 194.446C97.8035 203.151 72.4962 226.242 67.7604 271.352L67.7212 271.313Z" fill="#FAB50C"/>
<path fill-rule="evenodd" clip-rule="evenodd" d="M178.584 191.062C179.5 188.87 180.007 186.452 180.007 183.911C180.007 179.949 178.773 176.285 176.683 173.313L176.676 173.252C211.852 179.115 252.401 195.68 263.949 202.564C317.778 235.607 217.093 255.416 160.021 261.19L154.691 246.533C258.086 227.879 204.213 208.782 166.017 201.897L166.599 201.438C171.476 200.268 175.565 196.96 177.901 192.515L178.675 191.904L178.584 191.062Z" fill="#FAB50C"/>
<path d="M130.707 251.197C122.269 252.752 104.459 255.994 100.728 256.527L95.3984 270.517L134.038 261.857L130.707 251.197Z" fill="#FAB50C"/>
<path fill-rule="evenodd" clip-rule="evenodd" d="M60.8023 275.867C61.1924 271.085 61.8107 266.541 62.6255 262.227C30.1834 268.127 -22.2933 289.574 12.1202 331.809C17.8936 338.471 36.5025 356.192 64.7503 373.78L76.0767 380.442L44.7652 329.144C39.2673 319.248 38.5164 294.194 60.7594 285.427C60.3201 284.078 60.0847 282.653 60.0847 281.178C60.0847 280.946 60.0906 280.715 60.1021 280.485L60.0878 280.511L60.1077 280.381C60.1584 279.507 60.2919 278.652 60.5015 277.822L60.8023 275.867Z" fill="#FAB50C"/>
<circle cx="1193.17" cy="145.398" r="23.4429" fill="#FAB50C"/>
<path fill-rule="evenodd" clip-rule="evenodd" d="M1171.28 187.728C1171.3 187.952 1171.31 188.176 1171.32 188.398L1171.35 188.394L1175.21 219.888L1202.83 249.637C1204.33 250.741 1205.39 252.449 1205.61 254.452C1206.04 258.248 1203.3 261.667 1199.51 262.089C1196.86 262.383 1194.4 261.144 1193.01 259.082L1163.04 227.113L1162.98 226.988C1162.35 226.352 1161.79 225.579 1161.35 224.694C1160.79 223.554 1160.49 222.371 1160.43 221.256L1160.36 221.085L1155.37 190.171L1155.41 190.167C1155.36 189.95 1155.32 189.729 1155.3 189.504C1154.85 185.46 1158.06 181.784 1162.47 181.293C1166.88 180.803 1170.83 183.684 1171.28 187.728Z" fill="#FAB50C"/>
<path fill-rule="evenodd" clip-rule="evenodd" d="M1204.56 169.508C1204.56 169.156 1204.59 168.81 1204.65 168.475C1207.42 167.349 1209.94 165.706 1212.07 163.664C1214.68 164.325 1216.61 166.691 1216.61 169.508C1216.61 169.733 1216.6 169.956 1216.58 170.175L1216.61 170.177L1216.53 170.492C1216.47 170.853 1216.38 171.203 1216.26 171.539L1207.24 206.443C1207.18 210.099 1204.21 213.046 1200.54 213.046C1198.78 213.046 1197.18 212.37 1195.99 211.264L1178.85 197.08C1178.26 196.708 1177.72 196.26 1177.24 195.75L1177.1 195.629L1177.11 195.608C1176.21 194.595 1175.57 193.353 1175.27 191.981C1177.93 191.146 1180.4 188.885 1181.75 185.704C1182.24 184.558 1182.54 183.39 1182.66 182.248C1182.82 182.24 1182.97 182.235 1183.13 182.235C1185.69 182.235 1187.97 183.436 1189.45 185.307C1190.99 186.741 1192.67 188.677 1194 190.208L1194 190.208L1194 190.208C1194.76 191.092 1195.41 191.841 1195.85 192.28C1197.46 193.888 1198.98 192.503 1199.2 191.61L1204.56 169.514L1204.56 169.508Z" fill="#FAB50C"/>
<path d="M1092.7 277.961C1092.7 271.334 1098.08 265.961 1104.7 265.961H1169.12C1175.74 265.961 1181.12 271.334 1181.12 277.961V316.922C1181.12 323.549 1175.74 328.922 1169.12 328.922H1104.7C1098.08 328.922 1092.7 323.549 1092.7 316.922V277.961Z" fill="#FAB50C"/>
<path fill-rule="evenodd" clip-rule="evenodd" d="M1161.37 160.803C1158.4 160.803 1155.65 161.547 1153.38 162.818L1153.34 162.812C1133.05 170.391 1097.72 198.356 1118.41 249.641C1118.57 253.279 1120.59 257.098 1124.01 259.932H1173.81C1180.44 259.932 1185.81 265.304 1185.81 271.932V307.82L1187.15 319.545L1187.45 319.509C1188.65 324.522 1193.15 328.251 1198.53 328.251C1204.82 328.251 1209.92 323.154 1209.92 316.866L1209.92 316.865L1209.92 316.815C1209.92 316.552 1209.91 316.29 1209.89 316.032L1207.7 258.842C1206.46 261.719 1203.52 263.934 1199.88 264.368C1195.7 264.866 1191.86 262.861 1190.24 259.651L1163.3 229.624C1161.44 228.456 1159.85 226.36 1159.03 223.719C1158.66 222.485 1158.48 221.252 1158.5 220.082L1158.38 219.849L1153.73 188.775C1153.68 188.529 1153.63 188.279 1153.6 188.024C1153.59 187.916 1153.58 187.807 1153.57 187.699L1153.52 187.347L1153.55 187.344C1153.45 183.12 1157.08 179.358 1161.99 178.774C1167.16 178.159 1171.78 181.302 1172.32 185.795C1172.33 185.869 1172.33 185.942 1172.34 186.015L1172.97 191.272L1173.1 191.05C1175.85 190.274 1178.42 187.976 1179.81 184.706C1180.71 182.589 1180.97 180.397 1180.67 178.433L1180.8 178.217C1180.8 178.217 1180.63 177.727 1180.34 176.977C1180.2 176.548 1180.04 176.136 1179.85 175.745C1179.21 174.182 1178.32 172.208 1177.45 170.849C1175.85 168.359 1172.76 165.491 1172.76 165.491L1172.75 165.489C1170.19 162.649 1166.05 160.803 1161.37 160.803Z" fill="#FAB50C"/>
</svg>
